<svg width="20" height="20" viewBox="0 0 20 20" fill="none" xmlns="http://www.w3.org/2000/svg">
<rect width="20" height="19.9993" rx="5" fill="#53B175"/>
<path d="M13.7223 9.99964C13.7223 10.1642 13.6592 10.3233 13.5412 10.4385C13.426 10.5565 13.2668 10.6223 13.1022 10.6223H10.6215V13.1021C10.6215 13.2666 10.5557 13.4257 10.4377 13.541C10.3224 13.6562 10.166 13.722 10.0014 13.722C9.83671 13.722 9.67755 13.6562 9.5623 13.541C9.4443 13.4257 9.37845 13.2666 9.37845 13.1021V10.6223H6.89779C6.73314 10.6223 6.57399 10.5565 6.45874 10.4385C6.34348 10.3233 6.27763 10.1642 6.27763 9.99964C6.27763 9.83505 6.34348 9.6787 6.45874 9.56075C6.57399 9.44554 6.73314 9.3797 6.89779 9.3797H9.37845V6.89996C9.37845 6.73538 9.4443 6.57628 9.5623 6.46107C9.67755 6.34312 9.83671 6.27728 10.0014 6.27728C10.166 6.27728 10.3224 6.34312 10.4377 6.46107C10.5557 6.57628 10.6215 6.73538 10.6215 6.89996V9.3797H13.1022C13.2668 9.3797 13.426 9.44554 13.5412 9.56075C13.6592 9.6787 13.7223 9.83505 13.7223 9.99964Z" fill="white"/>
</svg>
