<svg width="22" height="20" viewBox="0 0 22 20" fill="none" xmlns="http://www.w3.org/2000/svg">
<path d="M8.52087 19.2499C7.87232 19.2499 7.25033 18.9964 6.79173 18.5451C6.33314 18.0939 6.0755 17.4818 6.0755 16.8437C6.0755 16.2055 6.33314 15.5935 6.79173 15.1422C7.25033 14.6909 7.87232 14.4374 8.52087 14.4374C9.16942 14.4374 9.7914 14.6909 10.25 15.1422C10.7086 15.5935 10.9662 16.2055 10.9662 16.8437C10.9662 17.4818 10.7086 18.0939 10.25 18.5451C9.7914 18.9964 9.16942 19.2499 8.52087 19.2499ZM17.0796 19.2499C16.4311 19.2499 15.8091 18.9964 15.3505 18.5451C14.8919 18.0939 14.6343 17.4818 14.6343 16.8437C14.6343 16.2055 14.8919 15.5935 15.3505 15.1422C15.8091 14.6909 16.4311 14.4374 17.0796 14.4374C17.7282 14.4374 18.3502 14.6909 18.8088 15.1422C19.2674 15.5935 19.525 16.2055 19.525 16.8437C19.525 17.4818 19.2674 18.0939 18.8088 18.5451C18.3502 18.9964 17.7282 19.2499 17.0796 19.2499ZM1.13832 2.3136C0.833088 2.30391 0.543655 2.17779 0.331222 1.96191C0.11879 1.74602 1.52588e-05 1.4573 1.52588e-05 1.1568C1.52588e-05 0.856298 0.11879 0.567577 0.331222 0.351693C0.543655 0.135809 0.833088 0.00968729 1.13832 0L2.54562 0C3.64848 0 4.60217 0.753153 4.84182 1.8119L6.37384 8.59989C6.61348 9.65864 7.56718 10.4118 8.67003 10.4118H17.8548L19.6179 3.4698H8.19197C7.88961 3.45622 7.60421 3.32848 7.39512 3.11313C7.18604 2.89779 7.06936 2.61143 7.06936 2.3136C7.06936 2.01577 7.18604 1.72941 7.39512 1.51406C7.60421 1.29872 7.88961 1.17098 8.19197 1.1574H19.6179C19.9754 1.1573 20.3281 1.23738 20.6494 1.39157C20.9706 1.54575 21.2519 1.76998 21.4719 2.04721C21.6918 2.32443 21.8447 2.64736 21.9188 2.99143C21.9929 3.3355 21.9862 3.69167 21.8994 4.03286L20.1363 10.9724C20.0092 11.4732 19.7156 11.9177 19.3022 12.2353C18.8888 12.553 18.3793 12.7255 17.8548 12.7254H8.67003C7.59994 12.7255 6.56179 12.3665 5.72706 11.7077C4.89232 11.0488 4.31091 10.1295 4.07887 9.1016L2.54562 2.3136H1.13832Z" fill="#181725"/>
</svg>
