<svg width="18" height="19" viewBox="0 0 18 19" fill="none" xmlns="http://www.w3.org/2000/svg">
<path fill-rule="evenodd" clip-rule="evenodd" d="M15.1736 8.14815C15.1736 4.84067 13.2681 2.54507 10.8028 1.85591C10.7135 1.63482 10.5724 1.42927 10.3806 1.2568C9.72538 0.667493 8.70436 0.667493 8.04911 1.2568C7.85776 1.42889 7.71687 1.63391 7.62757 1.85446C5.15902 2.54062 3.2562 4.8312 3.2562 8.14815C3.2562 10.2943 2.80417 11.4969 1.96738 12.3683C1.82748 12.5141 1.44841 12.8478 1.19164 13.0739L1.19159 13.074L1.19158 13.074C1.07013 13.1809 0.976054 13.2638 0.947604 13.2912L0.702477 13.5292V16.3078H5.8848C6.06004 17.1731 6.55057 17.7521 7.43765 18.2703C8.5289 18.9077 9.90085 18.9077 10.9921 18.2703C11.775 17.813 12.2999 17.1102 12.5129 16.3078H17.7273V13.5292L17.4821 13.2912C17.4564 13.2662 17.3663 13.1867 17.2485 13.0827L17.2481 13.0823L17.248 13.0822L17.248 13.0822C16.992 12.8561 16.6055 12.5149 16.4635 12.3664C15.6262 11.4908 15.1736 10.2867 15.1736 8.14815ZM10.6932 16.3078H7.66444C7.78471 16.5219 7.98969 16.6836 8.32449 16.8792C8.8712 17.1985 9.55855 17.1985 10.1053 16.8792C10.3584 16.7313 10.5562 16.5356 10.6932 16.3078ZM15.2078 13.4668C15.3869 13.6541 15.7708 13.9964 16.0248 14.2201V14.6781H2.40496V14.2205C2.65698 13.9994 3.04205 13.6573 3.22086 13.4711C4.35789 12.2869 4.95867 10.6886 4.95867 8.14815C4.95867 5.06807 6.94442 3.26935 9.21487 3.26935C11.4789 3.26935 13.4711 5.07735 13.4711 8.14815C13.4711 10.6804 14.072 12.2793 15.2078 13.4668Z" fill="black"/>
</svg>
