<svg width="19" height="19" viewBox="0 0 19 19" fill="none" xmlns="http://www.w3.org/2000/svg">
<path d="M10.6538 4.39659L10.3976 4.13998V4.50257V11.9413C10.3976 12.2512 10.2745 12.5484 10.0554 12.7675C9.83625 12.9866 9.53905 13.1097 9.22916 13.1097C8.91926 13.1097 8.62206 12.9866 8.40294 12.7675C8.18381 12.5484 8.06071 12.2512 8.06071 11.9413V4.50257V4.1402L7.80459 4.39655L6.32669 5.87577C6.32668 5.87578 6.32666 5.8758 6.32665 5.87581C6.10722 6.09506 5.80969 6.21817 5.4995 6.21806C5.18929 6.21795 4.89183 6.09461 4.67256 5.87518C4.45328 5.65575 4.33016 5.3582 4.33027 5.04799C4.33038 4.73778 4.45371 4.44032 4.67314 4.22104L8.40304 0.493775L8.40338 0.493433C8.5116 0.384593 8.64027 0.29822 8.78198 0.239281C8.9237 0.180342 9.07567 0.15 9.22916 0.15C9.38264 0.15 9.53461 0.180342 9.67633 0.239281C9.81805 0.29822 9.94671 0.384593 10.0549 0.493434L10.0553 0.493756L13.7851 4.22229C13.7851 4.22229 13.7851 4.2223 13.7851 4.22231C13.7851 4.22232 13.7851 4.22233 13.7852 4.22234C13.8937 4.33098 13.9798 4.45993 14.0385 4.60184C14.0972 4.74377 14.1274 4.89588 14.1274 5.04948C14.1273 5.20308 14.097 5.35517 14.0382 5.49705C13.9794 5.63894 13.8932 5.76785 13.7845 5.87643C13.6759 5.985 13.5469 6.07111 13.405 6.12984C13.263 6.18857 13.1109 6.21877 12.9573 6.21872C12.8037 6.21866 12.6516 6.18836 12.5097 6.12953C12.3679 6.0707 12.239 5.98452 12.1304 5.8759C12.1304 5.87588 12.1304 5.87586 12.1304 5.87584L10.6538 4.39659ZM2.6369 10.399H2.4869V10.549V15.8228V15.9728H2.6369H15.8214H15.9714V15.8228V10.549V10.399H15.8214H14.503C14.1931 10.399 13.8959 10.2759 13.6767 10.0568C13.4576 9.83764 13.3345 9.54043 13.3345 9.23054C13.3345 8.92065 13.4576 8.62345 13.6767 8.40432C13.8959 8.18519 14.1931 8.06209 14.503 8.06209H15.8214C16.481 8.06209 17.1135 8.3241 17.5799 8.79049C18.0463 9.25687 18.3083 9.88943 18.3083 10.549V15.8228C18.3083 16.4824 18.0463 17.1149 17.5799 17.5813C17.1135 18.0477 16.481 18.3097 15.8214 18.3097H2.6369C1.97733 18.3097 1.34478 18.0477 0.878397 17.5813C0.412012 17.1149 0.15 16.4824 0.15 15.8228V10.549C0.15 9.88943 0.412012 9.25687 0.878397 8.79049C1.34478 8.3241 1.97733 8.06209 2.6369 8.06209H3.95535C4.26524 8.06209 4.56245 8.18519 4.78157 8.40432C5.0007 8.62345 5.1238 8.92065 5.1238 9.23054C5.1238 9.54043 5.0007 9.83764 4.78157 10.0568C4.56245 10.2759 4.26524 10.399 3.95535 10.399H2.6369Z" fill="#181725" stroke="white" stroke-width="0.3"/>
</svg>
