<svg width="21" height="20" viewBox="0 0 21 20" fill="none" xmlns="http://www.w3.org/2000/svg">
<path d="M7.5 7.236C8.03 7.711 8.732 8 9.5 8H11.5C12.2381 8.00102 12.9505 7.72888 13.5 7.236H7.5ZM7.5 7.236C6.95054 7.72888 6.23814 8.00102 5.5 8L7.5 7.236ZM6.55 2V1.95H6.5H3.5C3.22153 1.95 2.95445 2.06062 2.75754 2.25754C2.56063 2.45445 2.45 2.72152 2.45 3V5C2.45 5.27848 2.56063 5.54555 2.75754 5.74246C2.95445 5.93937 3.22153 6.05 3.5 6.05H5.5C5.77848 6.05 6.04555 5.93937 6.24247 5.74246C6.43938 5.54555 6.55 5.27848 6.55 5V2ZM3.51 7.95H3.46V8V17.965V18.015H3.51H5.5H5.55V17.965V13C5.55 12.4828 5.75545 11.9868 6.12114 11.6211C6.48684 11.2554 6.98283 11.05 7.5 11.05H9.5C10.0172 11.05 10.5132 11.2554 10.8789 11.6211C11.2446 11.9868 11.45 12.4828 11.45 13V17.965V18.015H11.5H17.513H17.563V17.965V8V7.95H17.513H15.5C14.7448 7.95 14.0545 7.66585 13.5334 7.19877L13.5 7.16884L13.4666 7.19878C12.9263 7.68342 12.2259 7.951 11.5001 7.95H11.5H9.5C8.74476 7.95 8.05454 7.66585 7.53337 7.19877L7.49999 7.16884L7.46662 7.19878C6.92634 7.68342 6.22586 7.951 5.50007 7.95H5.5H3.51ZM1.50817 7.17712C1.21173 6.90635 0.973701 6.57766 0.808902 6.21118C0.637674 5.83041 0.54942 5.41757 0.550003 5.00007V5V3C0.550003 2.21761 0.860806 1.46727 1.41404 0.914035C1.96727 0.360803 2.71761 0.05 3.5 0.05H17.5C18.2824 0.05 19.0327 0.360803 19.586 0.914035C20.1392 1.46727 20.45 2.21761 20.45 3V5C20.45 5.86733 20.0764 6.64803 19.4795 7.18792L19.463 7.20281V7.225V17.965C19.463 18.4822 19.2576 18.9782 18.8919 19.3439C18.5262 19.7096 18.0302 19.915 17.513 19.915H9.873V19.9141L9.86371 19.9159C9.7438 19.9385 9.62203 19.95 9.49999 19.95H7.5C7.37798 19.95 7.25621 19.9385 7.13629 19.9159L7.13646 19.915H7.127H3.511C2.99383 19.915 2.49784 19.7096 2.13214 19.3439C1.76645 18.9782 1.561 18.4822 1.561 17.965V7.245V7.1243L1.50817 7.17712ZM9.55 13V12.95H9.5H7.5H7.45V13V17.965V18.015H7.5H9.5V17.966H9.55V17.965V17.915V13ZM12.55 2V1.95H12.5H8.5H8.45V2V5C8.45 5.27848 8.56063 5.54555 8.75754 5.74246C8.95445 5.93937 9.22153 6.05 9.5 6.05H11.5C11.7785 6.05 12.0456 5.93937 12.2425 5.74246C12.4394 5.54555 12.55 5.27848 12.55 5V2ZM14.5 1.95H14.45V2V5C14.45 5.27848 14.5606 5.54555 14.7575 5.74246C14.9545 5.93937 15.2215 6.05 15.5 6.05H17.5C17.7785 6.05 18.0456 5.93937 18.2425 5.74246C18.4394 5.54555 18.55 5.27848 18.55 5V3C18.55 2.72152 18.4394 2.45445 18.2425 2.25754C18.0456 2.06062 17.7785 1.95 17.5 1.95H14.5ZM14.5 11.05H15.5C15.752 11.05 15.9936 11.1501 16.1718 11.3282C16.3499 11.5064 16.45 11.748 16.45 12V15C16.45 15.252 16.3499 15.4936 16.1718 15.6718C15.9936 15.8499 15.752 15.95 15.5 15.95H14.5C14.248 15.95 14.0064 15.8499 13.8283 15.6718C13.6501 15.4936 13.55 15.252 13.55 15V12C13.55 11.748 13.6501 11.5064 13.8283 11.3282C14.0064 11.1501 14.248 11.05 14.5 11.05Z" fill="#181725" stroke="white" stroke-width="0.1"/>
</svg>
