<svg width="24" height="24" viewBox="0 0 24 24" fill="none" xmlns="http://www.w3.org/2000/svg">
<path d="M8.02994 12.07C8.17077 12.0175 8.32221 11.9903 8.47532 11.9898C8.62843 11.9893 8.7801 12.0156 8.92136 12.0672C9.06261 12.1188 9.1906 12.1945 9.29774 12.29C9.40488 12.3855 9.48901 12.4988 9.54514 12.6231C9.60128 12.7475 9.62829 12.8804 9.62457 13.014C9.62086 13.1477 9.58649 13.2793 9.52351 13.4011C9.46052 13.523 9.3702 13.6325 9.25788 13.7234C9.14555 13.8142 9.01351 13.8845 8.86955 13.93C8.10387 14.1934 7.44671 14.6519 6.98358 15.2458C6.52045 15.8397 6.27279 16.5415 6.27282 17.26V19C6.27282 19.2652 6.39351 19.5196 6.60832 19.7071C6.82313 19.8946 7.11448 20 7.41827 20H16.5818C16.8856 20 17.177 19.8946 17.3918 19.7071C17.6066 19.5196 17.7273 19.2652 17.7273 19V17.353C17.7274 16.6115 17.4694 15.8874 16.9874 15.2768C16.5055 14.6662 15.8224 14.1979 15.0286 13.934C14.8838 13.8901 14.7505 13.8213 14.6367 13.7316C14.5228 13.6419 14.4308 13.5332 14.366 13.4119C14.3012 13.2905 14.265 13.1591 14.2594 13.0253C14.2539 12.8916 14.2792 12.7582 14.3338 12.6331C14.3884 12.508 14.4712 12.3938 14.5773 12.2972C14.6835 12.2006 14.8107 12.1235 14.9516 12.0706C15.0924 12.0177 15.244 11.9901 15.3973 11.9893C15.5507 11.9885 15.7026 12.0146 15.8442 12.066C17.0716 12.4742 18.1281 13.1983 18.8735 14.1425C19.6189 15.0867 20.0181 16.2063 20.0182 17.353V19C20.0182 19.7956 19.6561 20.5587 19.0117 21.1213C18.3673 21.6839 17.4932 22 16.5818 22H7.41827C6.5069 22 5.63285 21.6839 4.98841 21.1213C4.34398 20.5587 3.98193 19.7956 3.98193 19L3.98193 17.26C3.98209 16.1402 4.36827 15.0463 5.09022 14.1206C5.81218 13.195 6.8365 12.4805 8.02994 12.07ZM12.0001 2C13.2152 2 14.3806 2.42143 15.2399 3.17157C16.0991 3.92172 16.5818 4.93913 16.5818 6V8C16.5818 9.06087 16.0991 10.0783 15.2399 10.8284C14.3806 11.5786 13.2152 12 12.0001 12C10.7849 12 9.61949 11.5786 8.76024 10.8284C7.90099 10.0783 7.41827 9.06087 7.41827 8V6C7.41827 4.93913 7.90099 3.92172 8.76024 3.17157C9.61949 2.42143 10.7849 2 12.0001 2ZM12.0001 4C11.3925 4 10.8098 4.21071 10.3801 4.58579C9.95052 4.96086 9.70916 5.46957 9.70916 6V8C9.70916 8.53043 9.95052 9.03914 10.3801 9.41421C10.8098 9.78929 11.3925 10 12.0001 10C12.6076 10 13.1903 9.78929 13.62 9.41421C14.0496 9.03914 14.2909 8.53043 14.2909 8V6C14.2909 5.46957 14.0496 4.96086 13.62 4.58579C13.1903 4.21071 12.6076 4 12.0001 4Z" fill="#181725"/>
</svg>
